<svg xmlns="http://www.w3.org/2000/svg" viewBox="0 0 128 128">
  <ellipse cx="64" cy="116" rx="24" ry="8" fill="#000" opacity="0.2"/>
  <rect x="50" y="52" width="28" height="36" rx="10" fill="#3b82f6"/>
  <rect x="53" y="56" width="22" height="10" rx="4" fill="#2563eb"/>
  <rect x="44" y="58" width="8" height="24" rx="4" fill="#f6c19a" transform="rotate(-10 48 70)"/>
  <rect x="76" y="56" width="8" height="24" rx="4" fill="#f6c19a" transform="rotate(12 80 68)"/>
  <rect x="50" y="84" width="10" height="20" rx="4" fill="#1d4ed8" transform="rotate(8 55 94)"/>
  <rect x="68" y="84" width="10" height="20" rx="4" fill="#1d4ed8" transform="rotate(-10 73 94)"/>
  <rect x="48" y="101" width="14" height="6" rx="3" fill="#111827"/>
  <rect x="66" y="101" width="14" height="6" rx="3" fill="#111827"/>
  <circle cx="64" cy="34" r="16" fill="#f6c19a"/>
  <ellipse cx="64" cy="25" rx="14" ry="7" fill="#1f2937"/>
  <circle cx="58" cy="34" r="2.2" fill="#111827"/>
  <circle cx="70" cy="34" r="2.2" fill="#111827"/>
  <ellipse cx="64" cy="41" rx="4" ry="1.8" fill="#ef4444" opacity="0.65"/>
  <circle cx="64" cy="68" r="6" fill="#fde047"/>
  <text x="64" y="71" text-anchor="middle" font-size="7" font-family="Arial" fill="#111827">★</text>
</svg>

