<svg xmlns="http://www.w3.org/2000/svg" viewBox="0 0 128 128">
  <ellipse cx="64" cy="116" rx="24" ry="8" fill="#000" opacity="0.2"/>
  <rect x="48" y="50" width="32" height="40" rx="10" fill="#ffffff"/>
  <rect x="52" y="54" width="24" height="8" rx="4" fill="#e5e7eb"/>
  <rect x="42" y="58" width="8" height="24" rx="4" fill="#f6c19a" transform="rotate(-8 46 70)"/>
  <rect x="78" y="56" width="8" height="24" rx="4" fill="#f6c19a" transform="rotate(10 82 68)"/>
  <rect x="50" y="88" width="10" height="18" rx="4" fill="#1f2937" transform="rotate(8 55 97)"/>
  <rect x="68" y="88" width="10" height="18" rx="4" fill="#1f2937" transform="rotate(-10 73 97)"/>
  <rect x="48" y="103" width="14" height="6" rx="3" fill="#111827"/>
  <rect x="66" y="103" width="14" height="6" rx="3" fill="#111827"/>
  <circle cx="64" cy="33" r="16" fill="#f6c19a"/>
  <ellipse cx="64" cy="25" rx="14" ry="7" fill="#9ca3af"/>
  <ellipse cx="64" cy="38" rx="8" ry="5" fill="#9ca3af"/>
  <circle cx="58" cy="33" r="2" fill="#111827"/>
  <circle cx="70" cy="33" r="2" fill="#111827"/>
  <circle cx="58" cy="33" r="4.2" fill="none" stroke="#374151" stroke-width="1.3"/>
  <circle cx="70" cy="33" r="4.2" fill="none" stroke="#374151" stroke-width="1.3"/>
  <rect x="61.5" y="32.4" width="5" height="1.2" rx="0.6" fill="#374151"/>
  <rect x="59" y="64" width="10" height="14" rx="3" fill="none" stroke="#3b82f6" stroke-width="2"/>
  <circle cx="64" cy="79" r="3" fill="none" stroke="#3b82f6" stroke-width="2"/>
  <rect x="57" y="58" width="14" height="6" rx="2" fill="#2563eb"/>
  <text x="64" y="62.5" text-anchor="middle" font-size="6" font-family="Arial" fill="#fff">DR</text>
</svg>

